PathFileType	4	(X/Y/Z)	pose_F01_0-89.trc
DataRate	CameraRate	NumFrames	NumMarkers	Units	OrigDataRate	OrigDataStartFrame	OrigNumFrames
30	30	7	21	m	30	50	89
Frame#	Time	CHip			RHip			RKnee			RAnkle			RBigToe			RSmallToe			RHeel			LHip			LKnee			LAnkle			LBigToe			LSmallToe			LHeel			Neck			Nose			RShoulder			RElbow			RWrist			LShoulder			LElbow			LWrist			
		X1	Y1	Z1	X2	Y2	Z2	X3	Y3	Z3	X4	Y4	Z4	X5	Y5	Z5	X6	Y6	Z6	X7	Y7	Z7	X8	Y8	Z8	X9	Y9	Z9	X10	Y10	Z10	X11	Y11	Z11	X12	Y12	Z12	X13	Y13	Z13	X14	Y14	Z14	X15	Y15	Z15	X16	Y16	Z16	X17	Y17	Z17	X18	Y18	Z18	X19	Y19	Z19	X20	Y20	Z20	X21	Y21	Z21	
50	1.6666666666666667	-0.2591074549751828	1.834746337385898	-0.5415554410477154	-0.2722238448005293	1.8280676086052834	-0.4687619100367192	-0.24607690018723224	1.7173037171630696	-0.4052565097475197													-0.23854436234468168	1.8358717544114624	-0.6024417962358286	-0.2233392499016656	1.7155138990527528	-0.4712341201600585	-0.23374462180958266	1.624813836111612	-0.4690228441007768	-0.23835198179638853	1.587645000703577	-0.5101649786184993	-0.23807523367393768	1.5418572427586876	-0.5902069086245111				-0.2490410056699843	1.9861168860360647	-0.5478909076562439	-0.2566564537344485	2.056786191723265	-0.6055664211086099	-0.27101827997776623	1.983365615615595	-0.4548839393537493	-0.28499792161553256	1.8979102998846722	-0.41448680832787804	-0.2959823111347992	1.8266133183608635	-0.3757942838213148	-0.219694077434665	1.9927092939000521	-0.6453593144558369	-1.314571163236057	1.8461712281524156	0.40643917568762256	-1.2456134386340343	1.841424900944292	0.21763245800421052
51	1.7	-0.2592265586723738	1.831963505217578	-0.5411687283806274	-0.27249652468565994	1.8275186170239008	-0.46949860783798153	-0.24607690018723224	1.7173037171630696	-0.4052565097475197													-0.24152713188929997	1.8332984522827234	-0.602956292278695	-0.2233392499016656	1.7155138990527528	-0.4712341201600585	-0.23374462180958266	1.624813836111612	-0.4690228441007768	-0.23835198179638853	1.587645000703577	-0.5101649786184993	-0.23807523367393768	1.5418572427586876	-0.5902069086245111				-0.2490674505775072	1.9865423859512905	-0.5479266093956026	-0.2566881487419893	2.0567673436450784	-0.605581275001868	-0.2708780411507225	1.9848742020677579	-0.45485573622432973	-0.2841045479699537	1.9004030206122229	-0.41999097919063516	-0.2959823111347992	1.8266133183608635	-0.3757942838213148	-0.22158506913526013	1.9922825285074062	-0.6514475563932368	-1.2896990192245725	1.8485019660169926	0.3598084678750787	-1.2384637569314096	1.8399700195873954	0.19496446285430363
52	1.7333333333333334	-0.25856999013598614	1.832604756933569	-0.537915146112846	-0.27147545609474216	1.8273670348147881	-0.4663490649605054	-0.24607690018723224	1.7173037171630696	-0.4052565097475197													-0.2409271012753119	1.8338266211715157	-0.5998644545255398	-0.2233392499016656	1.7155138990527528	-0.4712341201600585	-0.23374462180958266	1.624813836111612	-0.4690228441007768	-0.23835198179638853	1.587645000703577	-0.5101649786184993	-0.23807523367393768	1.5418572427586876	-0.5902069086245111				-0.24894258524363574	1.9877621621010468	-0.5479072084644673	-0.2586743132930763	2.056666388402797	-0.6035502979015599	-0.27096746974068736	1.9861423798028173	-0.4552374322769561	-0.28428849345074103	1.8990508916086395	-0.4198531665576462	-0.2959823111347992	1.8266133183608635	-0.3757942838213148	-0.22053994045193517	1.9936161697083834	-0.6484063395783385	-1.2943163752655509	1.859525382370303	0.3607194362312519	-1.2438330278789917	1.8390845565123695	0.2004215706370923
53	1.7666666666666666	-0.2583487317796613	1.8337448395134	-0.538128460853876	-0.2695003949469373	1.8299618416132413	-0.46876818553691796	-0.24607690018723224	1.7173037171630696	-0.4052565097475197													-0.24071711279923322	1.8346419293428118	-0.6000853138274032	-0.2233392499016656	1.7155138990527528	-0.4712341201600585	-0.23374462180958266	1.624813836111612	-0.4690228441007768	-0.23835198179638853	1.587645000703577	-0.5101649786184993	-0.23807523367393768	1.5418572427586876	-0.5902069086245111				-0.24987464479033042	1.9878889346259432	-0.5509603457628693	-0.2567200017362883	2.056671597483735	-0.6056541963779872	-0.2709147594347992	1.9847027188603978	-0.4549007474268481	-0.2848319996262734	1.8987996666776445	-0.4145430021164128	-0.2959823111347992	1.8266133183608635	-0.3757942838213148	-0.2232948284340802	1.9957782980302559	-0.6492640255821408	-1.291909238169262	1.8590634092211784	0.3584323422636895	-1.2220709319257839	1.8396422275001014	0.1633408153675321
54	1.8	-0.2594263904472779	1.8281444797117827	-0.540674584612343	-0.27106279264095756	1.8276462767555848	-0.4689329891532853	-0.24607690018723224	1.7173037171630696	-0.4052565097475197													-0.2397109433404389	1.8294502920927032	-0.6046237341886816	-0.2233392499016656	1.7155138990527528	-0.4712341201600585	-0.23374462180958266	1.624813836111612	-0.4690228441007768	-0.23835198179638853	1.587645000703577	-0.5101649786184993	-0.23807523367393768	1.5418572427586876	-0.5902069086245111				-0.24985417394505022	1.987931223170634	-0.5509931982698818	-0.2587071610075175	2.0565697034303096	-0.6035751357035194	-0.27105253971490484	1.9837169065755895	-0.45498699789447244	-0.2859337801514252	1.8969200381954598	-0.4172284839143719	-0.2959823111347992	1.8266133183608635	-0.3757942838213148	-0.22039387990464937	1.9950247890395676	-0.6484073754576322	-1.2765214685824076	1.8582716052498622	0.3421144386135133	-1.2268503636306136	1.8427488999411732	0.1839595086932066
55	1.8333333333333333	-0.26154485157241847	1.8287928688518114	-0.538770518443191	-0.2726251903349778	1.8253307118979283	-0.4690977927696526	-0.24607690018723224	1.7173037171630696	-0.4052565097475197													-0.2419230278766668	1.8308605709082948	-0.6027302182598723	-0.2233392499016656	1.7155138990527528	-0.4712341201600585	-0.23374462180958266	1.624813836111612	-0.4690228441007768	-0.23835198179638853	1.587645000703577	-0.5101649786184993	-0.23807523367393768	1.5418572427586876	-0.5902069086245111				-0.24901797943932577	1.9863506732787348	-0.5479561625480608	-0.25868827005591344	2.0565989158569056	-0.6035669302009017	-0.270877885716749	1.9849045196527848	-0.45488483113352446	-0.2849070730703859	1.8973901302733496	-0.41415910579146853	-0.2959823111347992	1.8266133183608635	-0.3757942838213148	-0.22048721180183897	1.993578944613396	-0.6484232753696632	-1.2733012165237434	1.8522332562552712	0.3373148977805404	-1.2085011433204298	1.840991740426182	0.14986561434416829
56	1.8666666666666667	-0.26027532203462783	1.8329963584391007	-0.5444821904507524	-0.2724631204797978	1.8260039185925938	-0.4687487080963201	-0.24607690018723224	1.7173037171630696	-0.4052565097475197													-0.24165657304114016	1.8349808001130692	-0.6032427852518062	-0.2233392499016656	1.7155138990527528	-0.4712341201600585	-0.23374462180958266	1.624813836111612	-0.4690228441007768	-0.23835198179638853	1.587645000703577	-0.5101649786184993	-0.23807523367393768	1.5418572427586876	-0.5902069086245111				-0.24905325013679797	1.9865237478716051	-0.547970944019166	-0.2586807742174058	2.0566925926427553	-0.6035254143118514	-0.27092338056996557	1.984933202072103	-0.45495651506374135	-0.28499328531918566	1.8978429550798472	-0.414469286550631	-0.2959823111347992	1.8266133183608635	-0.3757942838213148	-0.22053066626567763	1.9933809205504458	-0.6484324894842106	-1.2748648490709926	1.848795104942742	0.3392965417574374	-1.2367641087182593	1.8409571813577004	0.2037424721578905
